<svg width="35" height="40" viewBox="0 0 35 40" fill="none" xmlns="http://www.w3.org/2000/svg">
<path d="M21.3864 3.39793C21.6458 3.26826 21.946 3.24689 22.2211 3.3385C22.4962 3.43011 22.7237 3.62721 22.8535 3.88647L26.0633 10.3061C28.0364 10.4577 29.2746 10.8456 30.0737 11.8329C30.7096 12.619 30.9137 13.5961 30.8394 14.9479H4.1606C4.08623 13.5961 4.29185 12.619 4.92623 11.8329C5.7254 10.8442 6.96352 10.4577 8.93665 10.3061L12.1464 3.88647C12.2774 3.62926 12.5046 3.43423 12.7787 3.34386C13.0528 3.2535 13.3515 3.27513 13.6097 3.40405C13.868 3.53296 14.0647 3.75871 14.1572 4.0321C14.2497 4.30548 14.2304 4.60434 14.1035 4.86355L11.4275 10.2156C12.1319 10.2083 12.9004 10.2083 13.7404 10.2083H21.2596C22.0996 10.2083 22.8681 10.2083 23.5725 10.2156L20.8964 4.86355C20.7669 4.60403 20.7457 4.30366 20.8376 4.02853C20.9295 3.7534 21.1269 3.5275 21.3864 3.39793Z" fill="white"/>
<path fill-rule="evenodd" clip-rule="evenodd" d="M5.18436 20.7915C4.91535 19.5772 4.6674 18.3584 4.44061 17.1355H30.5594C30.3324 18.3583 30.0845 19.5772 29.8156 20.7915L29.19 23.7082C28.4798 27.023 28.1254 28.6797 26.9223 29.6524C25.7192 30.6251 24.0246 30.6251 20.6354 30.6251H14.3646C10.9754 30.6251 9.28082 30.6251 8.07915 29.6524C6.87457 28.6797 6.51874 27.023 5.80999 23.7082L5.18436 20.7915ZM14.5833 19.323C14.2932 19.323 14.015 19.4382 13.8099 19.6434C13.6048 19.8485 13.4896 20.1267 13.4896 20.4167C13.4896 20.7068 13.6048 20.985 13.8099 21.1901C14.015 21.3953 14.2932 21.5105 14.5833 21.5105H20.4167C20.7067 21.5105 20.9849 21.3953 21.1901 21.1901C21.3952 20.985 21.5104 20.7068 21.5104 20.4167C21.5104 20.1267 21.3952 19.8485 21.1901 19.6434C20.9849 19.4382 20.7067 19.323 20.4167 19.323H14.5833Z" fill="white"/>
<circle cx="28" cy="31" r="7" fill="#EED600"/>
<path d="M28.2217 36.06C27.7017 36.06 27.1737 36.044 26.6377 36.012C26.1017 35.988 25.6137 35.956 25.1737 35.916V34.968H28.2577C28.5937 34.968 28.8777 34.916 29.1097 34.812C29.3497 34.7 29.5297 34.544 29.6497 34.344C29.7777 34.144 29.8417 33.916 29.8417 33.66V32.796C29.8417 32.428 29.7337 32.14 29.5177 31.932C29.3097 31.716 28.9817 31.608 28.5337 31.608H27.6697C27.3417 31.608 27.0817 31.68 26.8897 31.824C26.6977 31.968 26.5737 32.192 26.5177 32.496H25.3777L25.6297 27.156H30.7417V28.236H26.6737L26.5417 31.14C26.6457 30.988 26.8137 30.856 27.0457 30.744C27.2777 30.632 27.5657 30.576 27.9097 30.576H28.9297C29.3937 30.576 29.7817 30.664 30.0937 30.84C30.4057 31.016 30.6417 31.256 30.8017 31.56C30.9617 31.864 31.0417 32.208 31.0417 32.592V33.9C31.0417 34.388 30.9257 34.792 30.6937 35.112C30.4697 35.432 30.1457 35.672 29.7217 35.832C29.3057 35.984 28.8057 36.06 28.2217 36.06Z" fill="#101010"/>
</svg>
