<svg width="35" height="40" viewBox="0 0 35 40" fill="none" xmlns="http://www.w3.org/2000/svg">
<path d="M21.3868 3.39866C21.6462 3.269 21.9464 3.24762 22.2215 3.33923C22.4966 3.43084 22.724 3.62794 22.8539 3.8872L26.0637 10.3068C28.0368 10.4585 29.2749 10.8464 30.0741 11.8337C30.7099 12.6197 30.9141 13.5968 30.8397 14.9487H4.16097C4.0866 13.5968 4.29222 12.6197 4.9266 11.8337C5.72576 10.8449 6.96389 10.4585 8.93701 10.3068L12.1468 3.8872C12.2777 3.63 12.505 3.43496 12.7791 3.3446C13.0532 3.25423 13.3519 3.27586 13.6101 3.40478C13.8683 3.53369 14.0651 3.75944 14.1576 4.03283C14.2501 4.30621 14.2308 4.60507 14.1039 4.86428L11.4278 10.2164C12.1322 10.2091 12.9008 10.2091 13.7408 10.2091H21.2599C22.0999 10.2091 22.8685 10.2091 23.5728 10.2164L20.8968 4.86428C20.7672 4.60476 20.7461 4.30439 20.838 4.02927C20.9299 3.75414 21.1273 3.52824 21.3868 3.39866Z" fill="#012755"/>
<path fill-rule="evenodd" clip-rule="evenodd" d="M5.18516 20.7908C4.91614 19.5765 4.66819 18.3577 4.44141 17.1348H30.5602C30.3332 18.3576 30.0852 19.5765 29.8164 20.7908L29.1908 23.7075C28.4806 27.0223 28.1262 28.6789 26.9231 29.6516C25.7199 30.6243 24.0254 30.6243 20.6362 30.6243H14.3654C10.9762 30.6243 9.28161 30.6243 8.07995 29.6516C6.87536 28.6789 6.51953 27.0223 5.81078 23.7075L5.18516 20.7908ZM14.5841 19.3223C14.294 19.3223 14.0158 19.4375 13.8107 19.6426C13.6056 19.8477 13.4904 20.1259 13.4904 20.416C13.4904 20.7061 13.6056 20.9843 13.8107 21.1894C14.0158 21.3945 14.294 21.5098 14.5841 21.5098H20.4174C20.7075 21.5098 20.9857 21.3945 21.1908 21.1894C21.396 20.9843 21.5112 20.7061 21.5112 20.416C21.5112 20.1259 21.396 19.8477 21.1908 19.6426C20.9857 19.4375 20.7075 19.3223 20.4174 19.3223H14.5841Z" fill="#012755"/>
<circle cx="28" cy="31" r="7" fill="#EED600"/>
<path d="M28.2217 36.06C27.7017 36.06 27.1737 36.044 26.6377 36.012C26.1017 35.988 25.6137 35.956 25.1737 35.916V34.968H28.2577C28.5937 34.968 28.8777 34.916 29.1097 34.812C29.3497 34.7 29.5297 34.544 29.6497 34.344C29.7777 34.144 29.8417 33.916 29.8417 33.66V32.796C29.8417 32.428 29.7337 32.14 29.5177 31.932C29.3097 31.716 28.9817 31.608 28.5337 31.608H27.6697C27.3417 31.608 27.0817 31.68 26.8897 31.824C26.6977 31.968 26.5737 32.192 26.5177 32.496H25.3777L25.6297 27.156H30.7417V28.236H26.6737L26.5417 31.14C26.6457 30.988 26.8137 30.856 27.0457 30.744C27.2777 30.632 27.5657 30.576 27.9097 30.576H28.9297C29.3937 30.576 29.7817 30.664 30.0937 30.84C30.4057 31.016 30.6417 31.256 30.8017 31.56C30.9617 31.864 31.0417 32.208 31.0417 32.592V33.9C31.0417 34.388 30.9257 34.792 30.6937 35.112C30.4697 35.432 30.1457 35.672 29.7217 35.832C29.3057 35.984 28.8057 36.06 28.2217 36.06Z" fill="#101010"/>
</svg>
