<svg width="20" height="22" viewBox="0 0 20 22" fill="none" xmlns="http://www.w3.org/2000/svg">
<path d="M18.3334 3.66634H14.0001V2.66634C14.0001 1.37967 12.9534 0.333008 11.6667 0.333008H8.33342C7.04675 0.333008 6.00008 1.37967 6.00008 2.66634V3.66634H1.66675C1.11475 3.66634 0.666748 4.11434 0.666748 4.66634C0.666748 5.21834 1.11475 5.66634 1.66675 5.66634H18.3334C18.8854 5.66634 19.3334 5.21834 19.3334 4.66634C19.3334 4.11434 18.8854 3.66634 18.3334 3.66634ZM8.00008 2.66634C8.00008 2.48234 8.14942 2.33301 8.33342 2.33301H11.6667C11.8507 2.33301 12.0001 2.48234 12.0001 2.66634V3.66634H8.00008V2.66634Z" fill="black"/>
<path d="M16.0001 7H4.0001C3.72543 7 3.4641 7.112 3.27476 7.312C3.08543 7.512 2.98676 7.77867 3.00143 8.05333L3.53476 18.192C3.63743 20.14 5.24543 21.6667 7.1961 21.6667H12.8028C14.7534 21.6667 16.3614 20.14 16.4641 18.1933L16.9974 8.05333C17.0121 7.77867 16.9134 7.512 16.7241 7.312C16.5348 7.112 16.2734 7 15.9988 7H16.0001Z" fill="black"/>
</svg>
