<svg width="24" height="26" viewBox="0 0 24 26" fill="none" xmlns="http://www.w3.org/2000/svg">
<g clip-path="url(#clip0_959_9203)">
<path d="M17.94 18.827C16.2306 20.1945 14.1491 20.952 12 20.9889C5 20.9889 1 12.5931 1 12.5931C2.24389 10.1603 3.96914 8.03481 6.06 6.35921M9.9 4.44917C10.5883 4.28007 11.2931 4.19555 12 4.19729C19 4.19729 23 12.5931 23 12.5931C22.393 13.7849 21.6691 14.9069 20.84 15.9409M14.12 14.818C13.8454 15.1273 13.5141 15.3754 13.1462 15.5475C12.7782 15.7196 12.3809 15.8121 11.9781 15.8196C11.5753 15.827 11.1752 15.7493 10.8016 15.5909C10.4281 15.4326 10.0887 15.1969 9.80385 14.8979C9.51897 14.5989 9.29439 14.2428 9.14351 13.8508C8.99262 13.4587 8.91853 13.0388 8.92563 12.6161C8.93274 12.1934 9.02091 11.7764 9.18488 11.3902C9.34884 11.004 9.58525 10.6564 9.88 10.3682" stroke="#012755" stroke-width="2" stroke-linecap="round" stroke-linejoin="round"/>
<path d="M1 1.04883L23 24.1373" stroke="#012755" stroke-width="2" stroke-linecap="round" stroke-linejoin="round"/>
</g>
<defs>
<clipPath id="clip0_959_9203">
<rect width="24" height="25.1874" fill="white"/>
</clipPath>
</defs>
</svg>
