<svg width="33" height="33" viewBox="0 0 33 33" fill="white" xmlns="http://www.w3.org/2000/svg">
<path d="M28.6544 6.33931C27.9521 5.63669 27.1183 5.07932 26.2005 4.69905C25.2828 4.31877 24.2991 4.12305 23.3057 4.12305C22.3123 4.12305 21.3286 4.31877 20.4108 4.69905C19.4931 5.07932 18.6592 5.63669 17.9569 6.33931L16.4994 7.79681L15.0419 6.33931C13.6234 4.92073 11.6994 4.12378 9.69318 4.12378C7.68701 4.12378 5.76301 4.92073 4.34443 6.33931C2.92585 7.75788 2.12891 9.68189 2.12891 11.6881C2.12891 13.6942 2.92585 15.6182 4.34443 17.0368L5.80193 18.4943L16.4994 29.1918L27.1969 18.4943L28.6544 17.0368C29.357 16.3345 29.9144 15.5007 30.2947 14.5829C30.675 13.6652 30.8707 12.6815 30.8707 11.6881C30.8707 10.6946 30.675 9.71095 30.2947 8.79319C29.9144 7.87544 29.357 7.0416 28.6544 6.33931Z" stroke="#012755" stroke-width="2" stroke-linecap="round" stroke-linejoin="round"/>
</svg>
