<svg width="28" height="28" viewBox="0 0 28 28" fill="none" xmlns="http://www.w3.org/2000/svg">
<path d="M14.5678 7.34975L14.6115 7.3362L14.6115 7.33755L15.2454 7.13945C15.3211 7.1158 15.3955 7.09257 15.4686 7.06978C15.7541 6.98066 16.018 6.8983 16.252 6.82343L16.4316 6.76596L16.4353 6.77716L16.9069 6.6246C16.9516 6.61013 16.9942 6.59641 17.0346 6.58346V23.9066L5.28174 21.8729L5.28679 21.8337L5.46204 20.4746L5.99779 16.3221C6.38904 13.291 6.78662 10.2148 6.81787 9.98832C6.837 9.85993 6.84868 9.7879 6.86026 9.73897C6.86075 9.73876 6.86124 9.73854 6.86174 9.73833C6.91739 9.71439 6.99918 9.68687 7.14014 9.64249C7.14439 9.64144 7.14809 9.64049 7.151 9.63973C7.16464 9.63617 7.17991 9.63188 7.19462 9.62764C7.22493 9.61892 7.26601 9.60666 7.31558 9.59164C7.41532 9.56142 7.5574 9.51762 7.73387 9.46293C7.88945 9.41471 8.07726 9.35632 8.28903 9.29048C8.52516 9.21707 8.79108 9.1344 9.07533 9.04624L9.07428 9.05116L9.89041 8.79612C9.94101 8.78031 9.99185 8.76441 10.043 8.74844C10.5583 8.58733 11.0991 8.41826 11.6591 8.24921L11.9489 8.16172L11.9506 8.15316L12.4056 8.01592C13.022 7.83004 13.6466 7.63594 14.2294 7.45485C14.344 7.41926 14.4569 7.38417 14.5678 7.34975ZM11.0881 7.37749C10.8848 7.43949 10.6844 7.50129 10.4874 7.5624C10.6941 7.01215 10.9874 6.43474 11.3394 5.93758C11.59 5.58358 11.8498 5.29825 12.108 5.08914C11.6408 5.74491 11.2828 6.56741 11.0881 7.37749ZM13.9167 6.50484C13.6401 6.59081 13.3551 6.67934 13.0667 6.76834C13.2511 6.37176 13.4773 6.019 13.7228 5.75578C13.7542 5.72239 13.7868 5.68956 13.8203 5.65768C13.8774 5.93256 13.9066 6.22821 13.9167 6.50484ZM18.4546 23.8149V7.3084L18.7181 7.56492L18.8259 7.66994L18.8554 7.69864L18.8631 7.70612L18.865 7.70802L18.8655 7.7085L18.8656 7.70862L18.8657 7.70865L19.2146 7.35055L18.8657 7.70866L19.008 7.84738L19.2068 7.85049L19.2069 7.85049L19.2071 7.85049L19.2079 7.8505L19.211 7.85055L19.2235 7.85075L19.2709 7.85151L19.4408 7.8543C19.5819 7.85667 19.7707 7.85994 19.962 7.86358C20.1535 7.86722 20.3465 7.87121 20.4964 7.875C20.5033 7.87517 20.5101 7.87535 20.5168 7.87552C20.6541 8.8158 21.1468 12.1535 21.6352 15.4605L22.4225 20.7898L22.6817 22.5437L22.7136 22.7594L18.4546 23.8149ZM20.4793 7.61577C20.4795 7.61757 20.4802 7.62241 20.4813 7.63018C20.4805 7.62544 20.4799 7.62063 20.4793 7.61577Z" stroke="#012755"/>
</svg>
