<svg width="16" height="21" viewBox="0 0 16 21" fill="none" xmlns="http://www.w3.org/2000/svg">
<path d="M14.9999 20.333H4.72656C4.17456 20.333 3.72656 19.885 3.72656 19.333C3.72656 18.781 4.17456 18.333 4.72656 18.333H14.9999C15.5519 18.333 15.9999 18.781 15.9999 19.333C15.9999 19.885 15.5519 20.333 14.9999 20.333Z" fill="black"/>
<path d="M12.9907 1.84764L10.9147 0.799642C9.27733 -0.0270247 7.26534 0.492975 6.23334 2.00764L1.21067 9.37031C0.833335 9.92631 0.712002 10.617 0.880002 11.2663C0.960002 11.5783 1.10667 11.865 1.30133 12.1143C2.228 14.4463 1.34667 16.4143 1.15867 16.785C1.15867 16.785 1.15867 16.7863 1.15867 16.7876L0.108002 18.8836C-0.0479982 19.1943 -0.030665 19.5623 0.149335 19.857C0.332002 20.1516 0.654668 20.3316 1.00133 20.3316H4.728C5.10533 20.3316 5.45067 20.1196 5.62 19.7823L5.92133 19.1876C6.10933 18.8156 7.168 16.937 9.59867 16.2983C9.61734 16.2983 9.63467 16.305 9.65333 16.305C9.94933 16.305 10.244 16.249 10.5253 16.1356C11.148 15.885 11.6333 15.377 11.856 14.7423L14.8 6.33164C15.4053 4.60098 14.628 2.67298 12.992 1.84631L12.9907 1.84764ZM4.656 17.4303L3.324 16.757C3.57733 15.9916 3.804 14.8783 3.68533 13.5743L7.00267 15.249C5.88267 15.9276 5.12267 16.7716 4.656 17.4303Z" fill="black"/>
</svg>
