<svg width="37" height="37" viewBox="0 0 37 37" fill="none" xmlns="http://www.w3.org/2000/svg">
<path d="M32.0267 23.1693L25.199 20.1095C24.8897 19.977 24.5522 19.9237 24.217 19.9545C23.8819 19.9853 23.5597 20.0992 23.2797 20.2859C23.2512 20.3041 23.2242 20.3244 23.1987 20.3466L19.6303 23.3817C19.5932 23.4019 19.552 23.4132 19.5099 23.4147C19.4677 23.4162 19.4258 23.4079 19.3874 23.3904C17.0937 22.2833 14.7176 19.9216 13.6062 17.6597C13.5877 17.6219 13.5781 17.5804 13.5781 17.5383C13.5781 17.4962 13.5877 17.4547 13.6062 17.4169L16.6515 13.8036C16.6733 13.7769 16.6936 13.7489 16.7122 13.7198C16.8963 13.4387 17.0075 13.1162 17.0358 12.7813C17.064 12.4465 17.0084 12.1099 16.874 11.8019L13.836 4.98579C13.6635 4.58343 13.3651 4.24787 12.9857 4.02949C12.6062 3.81111 12.1662 3.72168 11.7316 3.77462C9.84292 4.02292 8.10925 4.95043 6.85459 6.38384C5.59993 7.81725 4.91012 9.65846 4.91408 11.5634C4.91408 22.8802 14.1207 32.0868 25.4375 32.0868C27.3424 32.0905 29.1834 31.4006 30.6168 30.146C32.0501 28.8914 32.9777 27.1579 33.2263 25.2693C33.2791 24.8368 33.1909 24.3987 32.9748 24.0203C32.7586 23.642 32.4261 23.3435 32.0267 23.1693ZM25.4375 30.3525C15.0775 30.3525 6.64845 21.9234 6.64845 11.5634C6.64362 10.0804 7.17889 8.64639 8.15425 7.52926C9.1296 6.41214 10.4783 5.68834 11.9484 5.49309H11.9817C12.0399 5.49418 12.0965 5.51284 12.1439 5.54663C12.1914 5.58041 12.2275 5.62775 12.2476 5.68243L15.2972 12.4913C15.3146 12.5292 15.3236 12.5703 15.3236 12.612C15.3236 12.6536 15.3146 12.6948 15.2972 12.7327L12.2461 16.3546C12.2234 16.3805 12.2026 16.408 12.184 16.437C11.9931 16.7285 11.8807 17.0643 11.8576 17.4119C11.8346 17.7596 11.9017 18.1073 12.0525 18.4214C13.3345 21.0461 15.9794 23.6708 18.633 24.9528C18.9489 25.1027 19.2983 25.1682 19.6471 25.1429C19.9959 25.1176 20.3322 25.0023 20.6232 24.8082C20.6506 24.7895 20.6781 24.7692 20.7041 24.7475L24.2711 21.7124C24.3064 21.6935 24.3453 21.6824 24.3852 21.6799C24.4251 21.6774 24.4651 21.6835 24.5024 21.6979L31.3315 24.7577C31.3873 24.7814 31.4342 24.8221 31.4656 24.874C31.497 24.9259 31.5112 24.9863 31.5064 25.0467C31.3122 26.5175 30.589 27.8672 29.4722 28.8437C28.3553 29.8201 26.921 30.3565 25.4375 30.3525Z" fill="#012755"/>
</svg>
