<svg width="20" height="22" viewBox="0 0 20 22" fill="none" xmlns="http://www.w3.org/2000/svg">
<path d="M5.66699 5.99967V2.66634C5.66699 1.93034 6.26433 1.33301 7.00033 1.33301H13.0003C13.7363 1.33301 14.3337 1.93034 14.3337 2.66634V5.99967" stroke="black" stroke-width="1.5" stroke-linecap="round" stroke-linejoin="round"/>
<path d="M5.66667 16.6667H3.66667C2.19333 16.6667 1 15.4733 1 14V8.66667C1 7.19333 2.19333 6 3.66667 6H16.3333C17.8067 6 19 7.19333 19 8.66667V14C19 15.4733 17.8067 16.6667 16.3333 16.6667H14.3333" stroke="black" stroke-width="1.5" stroke-linecap="round" stroke-linejoin="round"/>
<path d="M14.3337 12V19.3333C14.3337 20.0693 13.7363 20.6667 13.0003 20.6667H7.00033C6.26433 20.6667 5.66699 20.0693 5.66699 19.3333V12H14.3337Z" stroke="black" stroke-width="1.5" stroke-linecap="round" stroke-linejoin="round"/>
</svg>
