<svg width="26" height="37" viewBox="0 0 26 37" fill="none" xmlns="http://www.w3.org/2000/svg">
<path d="M12.8333 0C5.73833 0 0 5.73833 0 12.8333C0 22.4583 12.8333 36.6667 12.8333 36.6667C12.8333 36.6667 25.6667 22.4583 25.6667 12.8333C25.6667 5.73833 19.9283 0 12.8333 0ZM12.8333 17.4167C11.6178 17.4167 10.452 16.9338 9.59243 16.0742C8.73289 15.2147 8.25 14.0489 8.25 12.8333C8.25 11.6178 8.73289 10.452 9.59243 9.59243C10.452 8.73289 11.6178 8.25 12.8333 8.25C14.0489 8.25 15.2147 8.73289 16.0742 9.59243C16.9338 10.452 17.4167 11.6178 17.4167 12.8333C17.4167 14.0489 16.9338 15.2147 16.0742 16.0742C15.2147 16.9338 14.0489 17.4167 12.8333 17.4167Z" fill="#012755"/>
</svg>
